<svg width="30" height="30" viewBox="0 0 30 30" fill="none" xmlns="http://www.w3.org/2000/svg">
<path fill-rule="evenodd" clip-rule="evenodd" d="M14.9769 27.7465C22.0033 27.7465 27.7021 22.0412 27.7021 15C27.7021 7.95876 22.0033 2.25352 14.9769 2.25352C7.95053 2.25352 2.2517 7.95876 2.2517 15C2.2517 22.0412 7.95053 27.7465 14.9769 27.7465ZM14.9769 30C23.2485 30 29.9538 23.2843 29.9538 15C29.9538 6.71573 23.2485 0 14.9769 0C6.7054 0 0 6.71573 0 15C0 23.2843 6.7054 30 14.9769 30Z" fill="black"/>
<path d="M18.3893 7.71549L12.8292 12.4533C12.3784 12.8371 11.9578 13.567 11.8504 14.1511L10.5338 21.3416C10.4368 21.8706 10.6156 22.166 10.7827 22.3204C10.9875 22.5099 11.2683 22.5747 11.5531 22.4982C11.7194 22.4536 11.8871 22.3594 12.0513 22.2194L17.611 17.4817C18.0623 17.0975 18.4829 16.3676 18.5896 15.7845L19.9067 8.59341C20.0037 8.06427 19.8249 7.76922 19.6578 7.61479C19.3338 7.31494 18.8351 7.33486 18.3893 7.71549ZM17.3278 15.5528C17.2742 15.8472 17.0081 16.3089 16.78 16.5031L11.974 20.5982L13.112 14.3831C13.1663 14.0879 13.4327 13.6256 13.6603 13.4316L18.4663 9.33629L17.3278 15.5528Z" fill="black"/>
<path d="M14.5145 15.7237C15.1898 16.113 16.0529 15.8814 16.4428 15.2062C16.8319 14.5303 16.6005 13.6655 15.9261 13.2752C15.2508 12.8849 14.3875 13.1166 13.9979 13.7926C13.6083 14.4685 13.8395 15.3333 14.5145 15.7237Z" fill="black"/>
</svg>
