<svg class="logo" xmlns="http://www.w3.org/2000/svg" viewBox="0 0 100 66">
    <polygon points="1.25 40.7 1.25 47.63 50 65.5 98.75 47.63 98.75 40.7 50 58.58 1.25 40.7" />
    <polygon points="85.75 30.59 92.32 33 85.75 35.41 85.75 42.01 98.75 37.24 98.75 28.75 85.75 23.99 85.75 30.59" />
    <path d="M82.5,22.8,59.75,14.46V51.54L82.5,43.2v-9L79.22,33l3.28-1.2ZM76,39l-9.75,3.58V36.25H76Zm0-9.23H66.25V23.44L76,27Z" />
    <polygon points="43.5 46.14 43.5 52.73 50 55.12 56.5 52.73 56.5 46.13 53.25 47.33 53.25 18.67 56.5 19.86 56.5 13.27 50 10.88 43.5 13.27 43.5 19.86 46.75 18.67 46.75 47.33 43.5 46.14" />
    <polygon points="17.5 33 17.5 43.2 40.25 51.54 40.25 14.46 33.75 16.84 33.75 42.56 24 38.99 24 33 17.5 33" />
    <polygon points="14.25 35.41 7.67 33 30.5 24.63 30.5 18.03 1.25 28.76 1.25 37.24 14.25 42.01 14.25 35.41" />
    <polygon points="50 0.5 1.25 18.37 1.25 25.3 50 7.42 98.75 25.3 98.75 18.37 50 0.5" />
</svg>