<?xml version="1.0" encoding="UTF-8" standalone="no"?>
<!DOCTYPE svg PUBLIC "-//W3C//DTD SVG 1.1//EN" "http://www.w3.org/Graphics/SVG/1.1/DTD/svg11.dtd">
<svg width="100%" height="100%" viewBox="0 0 225 225" version="1.1" xmlns="http://www.w3.org/2000/svg" xmlns:xlink="http://www.w3.org/1999/xlink" xml:space="preserve" xmlns:serif="http://www.serif.com/" style="fill-rule:evenodd;clip-rule:evenodd;stroke-linejoin:round;stroke-miterlimit:2;">
    <g transform="matrix(1,0,0,1,-1641.7,-1127.63)">
        <g id="S" transform="matrix(1,0,0,1,5.90551,-0.0563853)">
            <g transform="matrix(1.18785,0,0,1.04602,-328.363,-58.0621)">
                <rect x="1653.54" y="1133.86" width="188.976" height="214.599" style="fill:rgb(247,247,247);"/>
            </g>
            <g transform="matrix(1.14375,0,0,1.0088,-251.28,-11.8636)">
                <rect x="1653.54" y="1133.86" width="188.976" height="214.599" style="fill:rgb(247,247,247);"/>
                <path d="M1842.52,1133.86L1842.52,1348.46L1653.54,1348.46L1653.54,1133.86L1842.52,1133.86ZM1833.41,1144.18L1662.65,1144.18L1662.65,1338.13L1833.41,1338.13L1833.41,1144.18Z" style="fill:rgb(34,34,34);"/>
            </g>
            <g transform="matrix(1,0,0,1,182.348,191.75)">
                <g transform="matrix(300,0,0,300,1486.78,1153.71)">
                    <path d="M0.253,0.01C0.385,0.01 0.495,-0.062 0.495,-0.194C0.495,-0.312 0.419,-0.363 0.284,-0.417C0.174,-0.46 0.138,-0.489 0.138,-0.563C0.138,-0.629 0.183,-0.676 0.259,-0.676C0.354,-0.676 0.413,-0.616 0.43,-0.505L0.462,-0.505L0.462,-0.654C0.412,-0.69 0.339,-0.712 0.259,-0.712C0.123,-0.712 0.038,-0.629 0.038,-0.517C0.038,-0.4 0.115,-0.351 0.224,-0.309C0.35,-0.259 0.394,-0.228 0.394,-0.149C0.394,-0.076 0.341,-0.026 0.253,-0.026C0.152,-0.026 0.089,-0.101 0.066,-0.226L0.031,-0.226L0.038,-0.055C0.082,-0.018 0.161,0.01 0.253,0.01Z" style="fill:rgb(34,34,34);fill-rule:nonzero;"/>
                </g>
                <path d="M1562.68,1160.87C1533.92,1160.87 1509.26,1151.97 1495.5,1140.4C1494.61,1139.64 1494.07,1138.55 1494.02,1137.38L1491.92,1086.08C1491.87,1084.94 1492.29,1083.84 1493.08,1083.02C1493.86,1082.2 1494.95,1081.74 1496.08,1081.74L1506.58,1081.74C1508.59,1081.74 1510.32,1083.18 1510.68,1085.15C1517.14,1120.24 1534.33,1141.74 1562.68,1141.74C1574.69,1141.74 1584.35,1138.46 1590.96,1132.56C1597.38,1126.84 1600.82,1118.67 1600.82,1109.01C1600.82,1086.86 1587.79,1078.91 1552.46,1064.89C1517.95,1051.59 1494.02,1035.66 1494.02,998.607C1494.02,962.772 1520.97,935.941 1564.48,935.941C1589.45,935.941 1612.21,942.89 1627.82,954.126C1628.9,954.909 1629.55,956.167 1629.55,957.507L1629.55,1002.21C1629.55,1004.51 1627.68,1006.37 1625.38,1006.37L1615.78,1006.37C1613.73,1006.37 1611.98,1004.87 1611.66,1002.84C1608.81,984.194 1601.92,970.586 1590.96,962.766C1583.8,957.65 1574.92,955.074 1564.48,955.074C1554.34,955.074 1546.22,958.092 1540.67,963.432C1535.22,968.686 1532.35,976.139 1532.35,984.807C1532.35,1005.36 1542.96,1012.79 1573.5,1024.73L1573.53,1024.74C1616.06,1041.75 1639.45,1058.33 1639.45,1095.51C1639.45,1137.56 1604.73,1160.87 1562.68,1160.87ZM1562.68,1156.71C1602.28,1156.71 1635.28,1135.11 1635.28,1095.51C1635.28,1060.11 1612.48,1044.81 1571.98,1028.61C1538.98,1015.71 1528.18,1007.01 1528.18,984.807C1528.18,965.007 1541.68,950.907 1564.48,950.907C1592.98,950.907 1610.68,968.907 1615.78,1002.21L1625.38,1002.21L1625.38,957.507C1610.38,946.707 1588.48,940.107 1564.48,940.107C1523.68,940.107 1498.18,965.007 1498.18,998.607C1498.18,1033.71 1521.28,1048.41 1553.98,1061.01C1591.78,1076.01 1604.98,1085.31 1604.98,1109.01C1604.98,1130.91 1589.08,1145.91 1562.68,1145.91C1532.38,1145.91 1513.48,1123.41 1506.58,1085.91L1496.08,1085.91L1498.18,1137.21C1511.38,1148.31 1535.08,1156.71 1562.68,1156.71Z" style="fill:rgb(247,247,247);"/>
            </g>
        </g>
    </g>
</svg>
