<svg width="164" height="30" viewBox="0 0 164 30" fill="none" xmlns="http://www.w3.org/2000/svg">
<path d="M43.9692 25.1797H45.3998V6.71372H51.9569V5.54867H37.4419V6.71372H43.9692V25.1797Z" fill="black"/>
<path d="M53.188 25.1797H54.5888V17.4613C54.5888 16.9953 54.6485 16.5292 54.7081 16.1215C55.0955 13.8788 56.4964 12.2186 58.4635 12.2186C58.7317 12.2186 58.9404 12.2186 59.149 12.2768V10.937C58.9702 10.9079 58.7615 10.8788 58.5827 10.8788C56.6156 10.8788 55.1253 12.2768 54.4994 14.0244H54.4398L54.3802 11.1992H53.0688C53.1284 12.539 53.188 13.9953 53.188 15.3933V25.1797Z" fill="black"/>
<path d="M73.3488 11.1992H71.9479V19.9079C71.9479 20.4613 71.7989 21.0147 71.6499 21.4516C71.0538 22.8496 69.5337 24.2768 67.4474 24.2768C64.6159 24.2768 63.6323 22.0924 63.6323 19.0632V11.1992H62.2315V19.3254C62.2315 24.6263 65.2716 25.5001 67.0897 25.5001C69.6529 25.5001 71.2922 23.9856 72.0075 22.704H72.0671L72.1566 25.1797H73.468C73.4084 24.1021 73.3488 22.9953 73.3488 21.772V11.1992Z" fill="black"/>
<path d="M89.3168 18.0438C89.3764 17.8108 89.3764 17.5778 89.3764 17.1991C89.3764 15.1894 88.4822 10.8788 83.8028 10.8788C80.107 10.8788 77.365 13.7914 77.365 18.4516C77.365 22.5584 79.9282 25.471 84.0413 25.471C86.5449 25.471 88.0054 24.8885 88.5418 24.5972L88.1842 23.4904C87.3794 23.8691 86.3065 24.2768 84.2201 24.2768C81.2694 24.2768 78.7658 22.5292 78.7658 18.0438H89.3168ZM78.8552 16.937C79.0937 14.7817 80.4647 12.0147 83.624 12.0147C87.0814 12.0147 87.9159 14.9856 87.8861 16.937H78.8552Z" fill="black"/>
<path d="M95.6906 25.1797V16.7914C95.6906 13.5292 95.631 11.17 95.482 8.6943L95.5714 8.66517C96.5848 10.7914 97.926 13.0341 99.3268 15.2186L105.705 25.1797H108.328V5.54867H105.884V13.7623C105.884 16.8205 105.944 19.2089 106.182 21.8302L106.122 21.8593C105.169 19.8496 104.006 17.7817 102.516 15.4807L96.0781 5.54867H93.2466V25.1797H95.6906Z" fill="black"/>
<path d="M119.258 10.7623C115.264 10.7623 112.104 13.5292 112.104 18.2477C112.104 22.704 115.115 25.5001 119.019 25.5001C122.506 25.5001 126.202 23.2283 126.202 18.0147C126.202 13.704 123.4 10.7623 119.258 10.7623ZM119.198 12.6846C122.298 12.6846 123.52 15.7137 123.52 18.1021C123.52 21.2768 121.642 23.5778 119.138 23.5778C116.575 23.5778 114.757 21.2477 114.757 18.1603C114.757 15.4807 116.098 12.6846 119.198 12.6846Z" fill="black"/>
<path d="M129.878 25.1797H132.471V17.6652C132.471 17.2283 132.531 16.8205 132.59 16.471C132.948 14.5487 134.259 13.1797 136.107 13.1797C136.465 13.1797 136.733 13.2089 137.001 13.2671V10.8496C136.763 10.7914 136.554 10.7623 136.256 10.7623C134.498 10.7623 132.918 11.9564 132.262 13.8496H132.143L132.054 11.0826H129.759C129.848 12.3933 129.878 13.8205 129.878 15.4807V25.1797Z" fill="black"/>
<path d="M141.325 7.70401V11.0826H139.089V13.0341H141.325V20.7234C141.325 22.3836 141.593 23.636 142.338 24.3933C142.964 25.0924 143.948 25.471 145.17 25.471C146.183 25.471 146.988 25.3254 147.494 25.1215L147.375 23.1992C147.047 23.2865 146.541 23.3739 145.855 23.3739C144.395 23.3739 143.888 22.3836 143.888 20.636V13.0341H147.644V11.0826H143.888V7.0341L141.325 7.70401Z" fill="black"/>
<path d="M150.968 25.1797H153.591V16.6749C153.591 16.1797 153.621 15.8011 153.77 15.4516C154.247 14.0535 155.588 12.8885 157.287 12.8885C159.761 12.8885 160.625 14.8108 160.625 17.0826V25.1797H163.248V16.7914C163.248 11.9273 160.148 10.7623 158.211 10.7623C157.227 10.7623 156.303 11.0535 155.529 11.4904C154.724 11.9273 154.068 12.5681 153.651 13.2962H153.591V4.50012H150.968V25.1797Z" fill="black"/>
<path fill-rule="evenodd" clip-rule="evenodd" d="M14.9769 27.7465C22.0033 27.7465 27.7021 22.0412 27.7021 15C27.7021 7.95876 22.0033 2.25352 14.9769 2.25352C7.95053 2.25352 2.2517 7.95876 2.2517 15C2.2517 22.0412 7.95053 27.7465 14.9769 27.7465ZM14.9769 30C23.2485 30 29.9538 23.2843 29.9538 15C29.9538 6.71573 23.2485 0 14.9769 0C6.7054 0 0 6.71573 0 15C0 23.2843 6.7054 30 14.9769 30Z" fill="black"/>
<path d="M18.3893 7.71549L12.8292 12.4533C12.3784 12.8371 11.9578 13.567 11.8504 14.1511L10.5338 21.3416C10.4368 21.8706 10.6156 22.166 10.7827 22.3204C10.9875 22.5099 11.2683 22.5747 11.5531 22.4982C11.7194 22.4536 11.8871 22.3594 12.0513 22.2194L17.611 17.4817C18.0623 17.0975 18.4829 16.3676 18.5896 15.7845L19.9067 8.59341C20.0037 8.06427 19.8249 7.76922 19.6578 7.61479C19.3338 7.31494 18.8351 7.33486 18.3893 7.71549ZM17.3278 15.5528C17.2742 15.8472 17.0081 16.3089 16.78 16.5031L11.974 20.5982L13.112 14.3831C13.1663 14.0879 13.4327 13.6256 13.6603 13.4316L18.4663 9.33629L17.3278 15.5528Z" fill="black"/>
<path d="M14.5145 15.7237C15.1898 16.113 16.0529 15.8814 16.4428 15.2062C16.8319 14.5303 16.6005 13.6655 15.9261 13.2752C15.2508 12.8849 14.3875 13.1166 13.9979 13.7926C13.6083 14.4685 13.8395 15.3333 14.5145 15.7237Z" fill="black"/>
</svg>
