<svg width="128" height="19" viewBox="0 0 128 19" fill="none" xmlns="http://www.w3.org/2000/svg">
<path d="M6.36 18.24C9.552 18.24 12.24 16.56 12.24 13.488C12.24 10.824 10.56 9.576 7.032 8.28C4.056 7.176 3.24 6.432 3.24 4.8C3.24 3.264 4.272 2.112 6.288 2.112C8.616 2.112 10.056 3.768 10.608 6.096H11.4V2.424C10.104 1.56 8.352 0.912 6.408 0.912C3.048 0.912 1.152 2.88 1.152 5.424C1.152 8.136 2.88 9.288 6.072 10.464C8.976 11.544 10.056 12.312 10.056 13.968C10.056 15.936 8.688 17.04 6.432 17.04C3.984 17.04 2.52 15.168 1.8 12.648H0.96L1.128 16.584C2.184 17.472 4.104 18.24 6.36 18.24ZM17.3519 5.04H16.7519L13.4159 6.24V6.744L15.1439 7.584V15.792C15.1439 16.896 14.3519 17.016 13.2959 17.16V18H19.1999V17.16C18.1199 17.016 17.3519 16.896 17.3519 15.792V5.04ZM16.1519 3.336C17.0159 3.336 17.7119 2.616 17.7119 1.728C17.7119 0.839999 17.0159 0.119998 16.1519 0.119998C15.2879 0.119998 14.5919 0.839999 14.5919 1.728C14.5919 2.616 15.2879 3.336 16.1519 3.336ZM41.1989 18V17.16C40.1429 17.016 39.3509 16.896 39.3509 15.792V8.976C39.3509 6.24 38.2469 5.04 36.1589 5.04C34.2389 5.04 32.7509 6.312 31.5749 7.464C31.2149 5.784 30.1829 5.04 28.5269 5.04C26.6069 5.04 25.2389 6.24 24.0629 7.392V5.04H23.4629L20.1269 6.24V6.744L21.8549 7.584V15.792C21.8549 16.896 21.0629 17.016 20.0069 17.16V18H25.9109V17.16C24.8309 17.016 24.0629 16.896 24.0629 15.792V8.088C24.9749 7.368 26.1989 6.816 27.4469 6.816C28.9349 6.816 29.5109 7.416 29.5109 9.144V15.792C29.5109 16.896 28.7189 17.016 27.6389 17.16V18H33.5669V17.16C32.5109 17.016 31.7189 16.896 31.7189 15.792V8.088C32.6309 7.368 33.8309 6.816 35.0789 6.816C36.5669 6.816 37.1429 7.416 37.1429 9.144V15.792C37.1429 16.896 36.3509 17.016 35.2709 17.16V18H41.1989ZM47.8847 16.992C45.4607 16.992 44.0687 14.448 44.0687 11.448C44.0687 8.352 45.1967 6.288 47.4527 6.288C49.8767 6.288 51.2687 8.832 51.2687 11.832C51.2687 14.928 50.1407 16.992 47.8847 16.992ZM47.5967 18.24C50.8607 18.24 53.5727 15.528 53.5727 11.4C53.5727 7.704 51.2927 5.04 47.7407 5.04C44.4767 5.04 41.7647 7.752 41.7647 11.88C41.7647 15.576 44.0447 18.24 47.5967 18.24ZM64.3151 15.792C64.3151 16.896 63.5231 17.016 62.4671 17.16V18H68.3951V17.16C67.3151 17.016 66.5231 16.896 66.5231 15.792V8.976C66.5231 6.168 65.2511 5.04 63.1631 5.04C61.1711 5.04 59.7311 6.24 58.5551 7.392V5.04H57.9551L54.6191 6.24V6.744L56.3471 7.584V15.792C56.3471 16.896 55.5551 17.016 54.4991 17.16V18H60.4031V17.16C59.3231 17.016 58.5551 16.896 58.5551 15.792V8.088C59.4671 7.368 60.8351 6.816 62.0831 6.816C63.6191 6.816 64.3151 7.416 64.3151 9.144V15.792ZM80.775 9.984L77.103 4.08C76.839 3.672 76.671 3.36 76.671 2.976C76.671 2.328 77.199 2.136 78.855 2.088V1.152H72.495V2.088C73.167 2.184 73.575 2.352 73.959 2.976L79.119 11.232V15.312C79.119 16.776 78.279 17.016 76.671 17.064V18H83.823V17.064C82.263 17.016 81.399 16.776 81.399 15.312V11.208L86.703 2.976C87.087 2.352 87.471 2.184 88.167 2.088V1.152H82.767V2.088C84.447 2.136 84.951 2.328 84.951 2.976C84.951 3.36 84.783 3.672 84.543 4.08L80.775 9.984ZM91.3498 16.56C90.1258 16.56 89.4298 15.792 89.4298 14.424C89.4298 13.512 90.0058 12.816 90.8938 12.48L94.3018 11.184V15.48C93.2938 16.224 92.4778 16.56 91.3498 16.56ZM96.5338 9.072C96.5338 6.456 95.1418 5.04 92.3818 5.04C89.7658 5.04 87.8218 6.192 87.8218 8.16C87.8218 8.736 87.9898 9.12 88.3258 9.456L90.1258 9.216C90.0058 8.736 89.9578 8.376 89.9578 7.968C89.9578 6.744 90.6298 6.192 91.9258 6.192C93.7978 6.192 94.3018 7.464 94.3018 8.904V10.08L90.5098 11.448C88.9498 12 87.1738 12.768 87.1738 15C87.1738 16.752 88.1818 18.24 90.3658 18.24C92.1418 18.24 93.5098 17.04 94.3738 16.056C94.5898 17.352 95.1898 18.24 96.4138 18.24C97.2538 18.24 97.9978 17.904 98.8138 17.088L98.6938 16.512C98.3338 16.608 97.7818 16.656 97.5658 16.656C96.8698 16.656 96.4618 16.08 96.4618 15.024C96.4618 14.016 96.5338 9.864 96.5338 9.072ZM102.258 2.544H101.634C100.578 4.08 99.5215 5.064 98.2975 5.832V6.552H100.074V15.408C100.074 17.448 101.274 18.24 102.93 18.24C104.514 18.24 105.762 17.616 106.578 16.728L106.338 16.2C105.714 16.512 104.874 16.728 104.154 16.728C102.834 16.728 102.258 16.272 102.258 14.952V6.552H105.93V5.28H102.258V2.544ZM112.423 5.04C109.111 5.04 106.663 7.848 106.663 12.048C106.663 15.48 108.727 18.24 112.231 18.24C114.919 18.24 116.695 16.704 117.271 14.568L116.863 14.352C115.975 15.528 114.847 16.416 113.047 16.416C110.335 16.416 108.655 14.28 108.655 11.136H117.247V10.392C117.247 7.248 115.591 5.04 112.423 5.04ZM112.063 6.216C114.031 6.216 115.039 7.68 115.039 9.984H108.751C108.943 7.992 110.167 6.216 112.063 6.216ZM122.925 18.24C125.685 18.24 127.389 16.632 127.389 14.52C127.389 12.096 125.781 11.376 123.381 10.632C121.533 10.056 120.549 9.36 120.549 8.04C120.549 6.96 121.341 6.144 122.637 6.144C124.341 6.144 125.421 7.104 125.757 9.024H126.669V6.048C125.613 5.448 124.317 5.04 122.709 5.04C120.189 5.04 118.581 6.552 118.581 8.664C118.581 10.848 119.997 11.76 122.133 12.432C124.293 13.104 125.397 13.632 125.397 15.192C125.397 16.44 124.485 17.16 122.949 17.16C120.981 17.16 119.805 15.912 119.325 13.872H118.437L118.581 17.064C119.757 17.952 121.365 18.24 122.925 18.24Z" fill="#222222"/>
</svg>
