<svg width="130" height="29" viewBox="0 0 130 29" fill="none" xmlns="http://www.w3.org/2000/svg">
<path d="M6.072 23.24C3.864 23.24 1.968 22.568 0.912 21.68L0.744 17.576H1.584C2.136 20.576 3.648 22.376 6.072 22.376C8.184 22.376 9.456 21.176 9.456 19.424C9.456 17.528 8.4 16.784 5.376 15.584C2.76 14.576 0.912 13.4 0.912 10.592C0.912 7.904 2.952 5.912 6.216 5.912C8.136 5.912 9.888 6.44 11.088 7.304V10.88H10.32C9.912 8.216 8.496 6.776 6.216 6.776C4.392 6.776 3.312 7.904 3.312 9.488C3.312 11.264 4.176 11.96 6.816 12.992C10.056 14.288 11.88 15.512 11.88 18.344C11.88 21.512 9.24 23.24 6.072 23.24ZM16.1334 8.48C15.1494 8.48 14.4294 7.712 14.4294 6.8C14.4294 5.864 15.1494 5.096 16.1334 5.096C17.1174 5.096 17.8614 5.864 17.8614 6.8C17.8614 7.712 17.1174 8.48 16.1334 8.48ZM17.5494 10.184V21.176C17.5494 22.064 17.9334 22.232 19.1334 22.304V23H13.2774V22.304C14.4774 22.232 14.8614 22.064 14.8614 21.176V12.608L13.3494 11.768V11.432L17.1654 10.184H17.5494ZM36.396 21.176V14.168C36.396 12.584 35.868 11.84 34.524 11.84C33.42 11.84 32.532 12.416 31.692 13.088V21.176C31.692 22.064 32.028 22.232 33.228 22.304V23H27.444V22.304C28.644 22.232 29.004 22.064 29.004 21.176V14.168C29.004 12.584 28.452 11.84 27.108 11.84C26.004 11.84 25.116 12.416 24.276 13.088V21.176C24.276 22.064 24.636 22.232 25.836 22.304V23H20.004V22.304C21.204 22.232 21.588 22.064 21.588 21.176V12.608L20.076 11.768V11.432L23.964 10.184H24.372L24.276 12.488C25.356 11.24 26.58 10.184 28.524 10.184C30.252 10.184 31.212 10.928 31.548 12.56C32.628 11.312 33.996 10.184 35.916 10.184C38.1 10.184 39.084 11.504 39.084 14.072V21.176C39.084 22.064 39.468 22.232 40.668 22.304V23H34.86V22.304C36.06 22.232 36.396 22.064 36.396 21.176ZM47.3059 23.24C43.8019 23.24 41.4739 20.744 41.4739 17C41.4739 12.896 44.0659 10.184 47.4259 10.184C50.9299 10.184 53.2579 12.704 53.2579 16.4C53.2579 20.528 50.6659 23.24 47.3059 23.24ZM47.4259 22.448C49.3939 22.448 50.4259 20.312 50.4259 17.12C50.4259 13.76 49.4659 10.976 47.3059 10.976C45.3379 10.976 44.3299 13.112 44.3299 16.304C44.3299 19.64 45.2899 22.448 47.4259 22.448ZM63.6285 21.176V14.168C63.6285 12.56 62.9805 11.84 61.6125 11.84C60.4845 11.84 59.4285 12.416 58.5885 13.088V21.176C58.5885 22.064 58.9725 22.232 60.1725 22.304V23H54.3165V22.304C55.5165 22.232 55.9005 22.064 55.9005 21.176V12.608L54.3885 11.768V11.432L58.2765 10.184H58.6845L58.5885 12.488C59.6685 11.264 61.0605 10.184 62.9805 10.184C65.2125 10.184 66.3165 11.456 66.3165 14.048V21.176C66.3165 22.064 66.7005 22.232 67.9005 22.304V23H62.0445V22.304C63.2445 22.232 63.6285 22.064 63.6285 21.176ZM82.0324 16.328V20.648C82.0324 21.992 82.6564 22.064 84.2884 22.28V23H77.0644V22.28C78.6964 22.064 79.3444 21.992 79.3444 20.648V16.352L74.5204 7.76C74.1604 7.136 73.7764 6.992 73.1044 6.872V6.152H79.7284V6.872C78.1684 6.92 77.7124 7.136 77.7124 7.76C77.7124 8.168 77.9284 8.504 78.1684 8.96L81.6724 15.104L85.0564 9.008C85.2484 8.624 85.4884 8.144 85.4884 7.736C85.4884 7.112 85.0084 6.92 83.4724 6.872V6.152H88.2484V6.872C87.6004 6.992 87.1684 7.184 86.8324 7.76L82.0324 16.328ZM96.8959 13.976V20.336C96.8959 21.296 97.0879 21.8 97.7599 21.8C98.1439 21.8 98.4799 21.68 98.7919 21.536L98.9359 21.968C98.3119 22.808 97.4479 23.24 96.4399 23.24C95.1919 23.24 94.4479 22.424 94.2559 21.104C93.4399 22.088 92.1439 23.216 90.4639 23.216C88.5439 23.216 87.3199 22.016 87.3199 20.168C87.3199 18.128 88.8079 17.288 90.6799 16.592L94.2079 15.296V13.472C94.2079 11.96 93.6559 10.856 92.2159 10.856C90.9439 10.856 90.4159 11.744 90.4159 12.944C90.4159 13.376 90.4879 13.784 90.6079 14.288L89.0239 14.504C88.3999 14.312 88.0159 13.832 88.0159 13.112C88.0159 11.216 89.9839 10.184 92.5039 10.184C95.3839 10.184 96.8959 11.336 96.8959 13.976ZM91.9039 21.608C92.7439 21.608 93.3679 21.224 94.2079 20.552V16.04L91.6879 17.072C90.5599 17.504 89.9119 18.128 89.9119 19.424C89.9119 20.72 90.5599 21.608 91.9039 21.608ZM103.061 7.376V10.424H106.349V11.408H103.061V19.352C103.061 20.984 103.661 21.656 104.909 21.656C105.629 21.656 106.133 21.44 106.757 20.984L107.021 21.344C106.325 22.376 105.197 23.24 103.613 23.24C101.789 23.24 100.396 22.256 100.396 19.64V11.408H98.8365V10.976C100.325 10.232 101.573 8.912 102.485 7.376H103.061ZM113.114 10.184C116.186 10.184 117.794 12.272 117.794 15.056V15.56H109.898C109.754 19.208 111.602 21.32 114.026 21.32C115.706 21.32 116.762 20.576 117.626 19.28L117.938 19.448C117.362 21.68 115.658 23.24 113.042 23.24C109.586 23.24 107.474 20.576 107.474 17.048C107.474 13.04 109.922 10.184 113.114 10.184ZM112.898 11C111.17 11 110.162 12.632 109.97 14.792H115.298C115.298 12.584 114.626 11 112.898 11ZM123.661 23.24C121.933 23.24 120.421 22.76 119.485 22.064L119.341 18.752H120.109C120.685 20.888 121.861 22.496 123.709 22.496C125.077 22.496 126.133 21.8 126.133 20.384C126.133 19.04 125.245 18.488 123.205 17.72C120.733 16.808 119.509 15.872 119.509 13.76C119.509 11.528 121.165 10.184 123.685 10.184C125.197 10.184 126.445 10.568 127.453 11.192V14.096H126.757C126.325 12.32 125.341 10.928 123.613 10.928C122.293 10.928 121.573 11.696 121.573 12.8C121.573 14 122.317 14.576 124.333 15.32C126.781 16.208 128.245 17.192 128.245 19.376C128.245 21.8 126.421 23.24 123.661 23.24Z" fill="#222222"/>
</svg>
