<svg width="128" height="24" viewBox="0 0 128 24" fill="none" xmlns="http://www.w3.org/2000/svg">
<path d="M6.36 22.24C9.552 22.24 12.24 20.56 12.24 17.488C12.24 14.824 10.56 13.576 7.032 12.28C4.056 11.176 3.24 10.432 3.24 8.8C3.24 7.264 4.272 6.112 6.288 6.112C8.616 6.112 10.056 7.768 10.608 10.096H11.4V6.424C10.104 5.56 8.352 4.912 6.408 4.912C3.048 4.912 1.152 6.88 1.152 9.424C1.152 12.136 2.88 13.288 6.072 14.464C8.976 15.544 10.056 16.312 10.056 17.968C10.056 19.936 8.688 21.04 6.432 21.04C3.984 21.04 2.52 19.168 1.8 16.648H0.96L1.128 20.584C2.184 21.472 4.104 22.24 6.36 22.24ZM17.3519 9.04H16.7519L13.4159 10.24V10.744L15.1439 11.584V19.792C15.1439 20.896 14.3519 21.016 13.2959 21.16V22H19.1999V21.16C18.1199 21.016 17.3519 20.896 17.3519 19.792V9.04ZM16.1519 7.336C17.0159 7.336 17.7119 6.616 17.7119 5.728C17.7119 4.84 17.0159 4.12 16.1519 4.12C15.2879 4.12 14.5919 4.84 14.5919 5.728C14.5919 6.616 15.2879 7.336 16.1519 7.336ZM41.1989 22V21.16C40.1429 21.016 39.3509 20.896 39.3509 19.792V12.976C39.3509 10.24 38.2469 9.04 36.1589 9.04C34.2389 9.04 32.7509 10.312 31.5749 11.464C31.2149 9.784 30.1829 9.04 28.5269 9.04C26.6069 9.04 25.2389 10.24 24.0629 11.392V9.04H23.4629L20.1269 10.24V10.744L21.8549 11.584V19.792C21.8549 20.896 21.0629 21.016 20.0069 21.16V22H25.9109V21.16C24.8309 21.016 24.0629 20.896 24.0629 19.792V12.088C24.9749 11.368 26.1989 10.816 27.4469 10.816C28.9349 10.816 29.5109 11.416 29.5109 13.144V19.792C29.5109 20.896 28.7189 21.016 27.6389 21.16V22H33.5669V21.16C32.5109 21.016 31.7189 20.896 31.7189 19.792V12.088C32.6309 11.368 33.8309 10.816 35.0789 10.816C36.5669 10.816 37.1429 11.416 37.1429 13.144V19.792C37.1429 20.896 36.3509 21.016 35.2709 21.16V22H41.1989ZM47.8847 20.992C45.4607 20.992 44.0687 18.448 44.0687 15.448C44.0687 12.352 45.1967 10.288 47.4527 10.288C49.8767 10.288 51.2687 12.832 51.2687 15.832C51.2687 18.928 50.1407 20.992 47.8847 20.992ZM47.5967 22.24C50.8607 22.24 53.5727 19.528 53.5727 15.4C53.5727 11.704 51.2927 9.04 47.7407 9.04C44.4767 9.04 41.7647 11.752 41.7647 15.88C41.7647 19.576 44.0447 22.24 47.5967 22.24ZM64.3151 19.792C64.3151 20.896 63.5231 21.016 62.4671 21.16V22H68.3951V21.16C67.3151 21.016 66.5231 20.896 66.5231 19.792V12.976C66.5231 10.168 65.2511 9.04 63.1631 9.04C61.1711 9.04 59.7311 10.24 58.5551 11.392V9.04H57.9551L54.6191 10.24V10.744L56.3471 11.584V19.792C56.3471 20.896 55.5551 21.016 54.4991 21.16V22H60.4031V21.16C59.3231 21.016 58.5551 20.896 58.5551 19.792V12.088C59.4671 11.368 60.8351 10.816 62.0831 10.816C63.6191 10.816 64.3151 11.416 64.3151 13.144V19.792Z" fill="#E1E1E1"/>
<path d="M79.4 13.984L75.728 8.08C75.464 7.672 75.296 7.36 75.296 6.976C75.296 6.328 75.824 6.136 77.48 6.088V5.152H71.12V6.088C71.792 6.184 72.2 6.352 72.584 6.976L77.744 15.232V19.312C77.744 20.776 76.904 21.016 75.296 21.064V22H82.448V21.064C80.888 21.016 80.024 20.776 80.024 19.312V15.208L85.328 6.976C85.712 6.352 86.096 6.184 86.792 6.088V5.152H81.392V6.088C83.072 6.136 83.576 6.328 83.576 6.976C83.576 7.36 83.408 7.672 83.168 8.08L79.4 13.984ZM89.9748 20.56C88.7508 20.56 88.0548 19.792 88.0548 18.424C88.0548 17.512 88.6308 16.816 89.5188 16.48L92.9268 15.184V19.48C91.9188 20.224 91.1028 20.56 89.9748 20.56ZM95.1588 13.072C95.1588 10.456 93.7668 9.04 91.0068 9.04C88.3908 9.04 86.4468 10.192 86.4468 12.16C86.4468 12.736 86.6148 13.12 86.9508 13.456L88.7508 13.216C88.6308 12.736 88.5828 12.376 88.5828 11.968C88.5828 10.744 89.2548 10.192 90.5508 10.192C92.4228 10.192 92.9268 11.464 92.9268 12.904V14.08L89.1348 15.448C87.5748 16 85.7988 16.768 85.7988 19C85.7988 20.752 86.8068 22.24 88.9908 22.24C90.7668 22.24 92.1348 21.04 92.9988 20.056C93.2148 21.352 93.8148 22.24 95.0388 22.24C95.8788 22.24 96.6228 21.904 97.4388 21.088L97.3188 20.512C96.9588 20.608 96.4068 20.656 96.1908 20.656C95.4948 20.656 95.0868 20.08 95.0868 19.024C95.0868 18.016 95.1588 13.864 95.1588 13.072ZM100.883 6.544H100.259C99.2025 8.08 98.1465 9.064 96.9225 9.832V10.552H98.6985V19.408C98.6985 21.448 99.8985 22.24 101.555 22.24C103.139 22.24 104.387 21.616 105.203 20.728L104.963 20.2C104.339 20.512 103.499 20.728 102.779 20.728C101.459 20.728 100.883 20.272 100.883 18.952V10.552H104.555V9.28H100.883V6.544ZM111.048 9.04C107.736 9.04 105.288 11.848 105.288 16.048C105.288 19.48 107.352 22.24 110.856 22.24C113.544 22.24 115.32 20.704 115.896 18.568L115.488 18.352C114.6 19.528 113.472 20.416 111.672 20.416C108.96 20.416 107.28 18.28 107.28 15.136H115.872V14.392C115.872 11.248 114.216 9.04 111.048 9.04ZM110.688 10.216C112.656 10.216 113.664 11.68 113.664 13.984H107.376C107.568 11.992 108.792 10.216 110.688 10.216ZM121.55 22.24C124.31 22.24 126.014 20.632 126.014 18.52C126.014 16.096 124.406 15.376 122.006 14.632C120.158 14.056 119.174 13.36 119.174 12.04C119.174 10.96 119.966 10.144 121.262 10.144C122.966 10.144 124.046 11.104 124.382 13.024H125.294V10.048C124.238 9.448 122.942 9.04 121.334 9.04C118.814 9.04 117.206 10.552 117.206 12.664C117.206 14.848 118.622 15.76 120.758 16.432C122.918 17.104 124.022 17.632 124.022 19.192C124.022 20.44 123.11 21.16 121.574 21.16C119.606 21.16 118.43 19.912 117.95 17.872H117.062L117.206 21.064C118.382 21.952 119.99 22.24 121.55 22.24Z" fill="#E1E1E1"/>
</svg>
