<?xml version="1.0" encoding="UTF-8"?>
<svg version="1.1" viewBox="0 0 58.918 64.462" xmlns="http://www.w3.org/2000/svg">
 <g>
  <path d="m12.762 26.201v-0.392a2.6635 2.6635 0 0 0 0.631-0.359 0.33041 0.33041 0 0 0 0.111-0.18 4.029 4.029 0 0 0 0.096-0.932c0.031-0.708 0.047-1.129 0.047-1.266v-4.192c0-0.702-0.016-1.393-0.047-2.068a2.4562 2.4562 0 0 0-0.115-0.876 0.53662 0.53662 0 0 0-0.293-0.203 5.8633 5.8633 0 0 0-1.151-0.08v-0.493c1.317 0.032 2.129 0.048 2.444 0.048q0.5175 0 2.326-0.048v0.493a6.068 6.068 0 0 0-1.172 0.08 0.51205 0.51205 0 0 0-0.287 0.189 1.8959 1.8959 0 0 0-0.123 0.752c-8e-3 0.104-0.024 0.838-0.047 2.207v5.236q0 0.8205 0.047 1.334c0.617 0.032 0.685 0.047 1.293 0.047a13.073 13.073 0 0 0 3.279-0.281 3.3447 3.3447 0 0 0 0.188-0.536l0.326-1.288h0.535q-0.1785 1.1565-0.35 2.715a5.2181 5.2181 0 0 1-0.527 0.077c-0.281 0.01105-0.715 0.016-1.299 0.016l-4.33-0.047c-0.518 0-1.047 0.016-1.582 0.047"/>
  <path d="m26.626 25.708v0.493c-1.147-0.032-1.899-0.047-2.26-0.047l-2.489 0.047v-0.493a5.5853 5.5853 0 0 0 1.149-0.086 0.56745 0.56745 0 0 0 0.291-0.183 1.9847 1.9847 0 0 0 0.121-0.75q9e-3 -0.16352 0.045-2.215v-3.598q0-1.0529-0.045-2.066a2.4838 2.4838 0 0 0-0.117-0.875 0.54488 0.54488 0 0 0-0.295-0.203 5.9244 5.9244 0 0 0-1.149-0.08v-0.49197c1.024 0.032 1.819 0.047 2.377 0.047 0.538 0 1.327-0.015 2.372-0.047v0.49194a5.9659 5.9659 0 0 0-1.157 0.08 0.49293 0.49293 0 0 0-0.283 0.19 1.8973 1.8973 0 0 0-0.121 0.751c-8e-3 0.102-0.021 0.83606-0.047 2.203v3.598c0 0.709 0.01 1.397 0.026 2.067a2.34 2.34 0 0 0 0.117 0.875 0.55434 0.55434 0 0 0 0.296 0.206 5.7159 5.7159 0 0 0 1.169 0.086m-1.561-9.035c-8e-3 0.102-0.021 0.83606-0.047 2.203v3.598"/>
  <path d="m28.418 26.201v-0.492a3.3134 3.3134 0 0 0 1.119-0.13 0.27516 0.27516 0 0 0 0.164-0.147 2.6352 2.6352 0 0 0 0.115-0.814c0.032-0.686 0.047-1.274 0.047-1.77v-6.323a1.0345 1.0345 0 0 0-0.033-0.336 1.1034 1.1034 0 0 0-0.295-0.333 0.71756 0.71756 0 0 0-0.338-0.16 6.2197 6.2197 0 0 0-0.847-0.043v-0.493c0.933 0.032 1.523 0.048 1.763 0.048 0.41 0 0.811-0.016 1.217-0.048q0.67951 0.86252 0.998 1.27l1.654 1.977 2.414 2.824q1.158 1.35 1.861 2.124 0.4455 0.5115 0.75 0.803v-5.66c0-0.50805-0.015-1.103-0.047-1.779a2.895 2.895 0 0 0-0.105-0.8 0.33912 0.33912 0 0 0-0.172-0.153 3.736 3.736 0 0 0-1.119-0.113v-0.493c0.641 0.032 1.287 0.048 1.947 0.048q0.92552 0 1.684-0.048v0.493a3.7007 3.7007 0 0 0-1.117 0.113 0.29658 0.29658 0 0 0-0.164 0.162 2.4951 2.4951 0 0 0-0.114 0.818c-0.031 0.678-0.048 1.267-0.048 1.763v3.735q0 1.137 0.048 4.237h-0.804l-0.202-0.215c-0.031-6e-3 -0.099-0.089-0.126-0.112a3.4035 3.4035 0 0 1-0.309-0.314q-0.6705-0.744-0.988-1.123l-1.045-1.279-5.746-6.655v6.027c0 0.514 0.014 1.118 0.051 1.817a2.8451 2.8451 0 0 0 0.103 0.801 0.28678 0.28678 0 0 0 0.172 0.156 3.4893 3.4893 0 0 0 1.121 0.125v0.492c-0.475-0.031-1-0.047-1.568-0.047-0.627 0-1.309 0.016-2.041 0.047"/>
  <path d="m47.346 25.708v0.492c-1.145-0.03094-1.896-0.047-2.26-0.047l-2.488 0.047v-0.492a5.6432 5.6432 0 0 0 1.154-0.086 0.55781 0.55781 0 0 0 0.287-0.183 1.9249 1.9249 0 0 0 0.119-0.75c0.01-0.109 0.024-0.848 0.047-2.215v-3.598q0-1.0545-0.047-2.066a2.4537 2.4537 0 0 0-0.115-0.875 0.52813 0.52813 0 0 0-0.293-0.203 5.9524 5.9524 0 0 0-1.152-0.08v-0.492c1.025 0.031 1.82 0.047 2.379 0.047q0.80551 0 2.369-0.047v0.492a5.9275 5.9275 0 0 0-1.154 0.08 0.49717 0.49717 0 0 0-0.285 0.189 1.8868 1.8868 0 0 0-0.12 0.752q-0.0105 0.153-0.045 2.203v3.598c0 0.709 6e-3 1.397 0.024 2.067a2.3398 2.3398 0 0 0 0.117 0.875 0.55425 0.55425 0 0 0 0.297 0.206 5.6764 5.6764 0 0 0 1.166 0.086"/>
  <path d="m58.918 24.82-0.316 0.725a8.649 8.649 0 0 1-1.862 0.662 9.0435 9.0435 0 0 1-1.98 0.203 8.7465 8.7465 0 0 1-2.342-0.3 6.2752 6.2752 0 0 1-1.885-0.863 5.3098 5.3098 0 0 1-2.1-2.775 5.7152 5.7152 0 0 1-0.269-1.793 5.252 5.252 0 0 1 1.809-4.084 7.1091 7.1091 0 0 1 4.933-1.622 11.023 11.023 0 0 1 1.371 0.081 13.849 13.849 0 0 1 1.532 0.309c0.605 0.152 0.972 0.24 1.109 0.268a4.6997 4.6997 0 0 0-0.266 0.831 11.396 11.396 0 0 0-0.177 1.528h-0.489l-8e-3 -0.908a1.3693 1.3693 0 0 0-0.884-1.133 5.8409 5.8409 0 0 0-2.348-0.368 6.6379 6.6379 0 0 0-1.961 0.279 3.7592 3.7592 0 0 0-1.422 0.839 4.4176 4.4176 0 0 0-1.008 1.459 5.6285 5.6285 0 0 0-0.396 2.222 4.9389 4.9389 0 0 0 1.5 3.765 5.526 5.526 0 0 0 3.969 1.423 7.0725 7.0725 0 0 0 2.064-0.289 4.9569 4.9569 0 0 0 1.287-0.623z"/>
  <path d="m10.754 24.82-0.316 0.725a8.6717 8.6717 0 0 1-1.86 0.662 9.062 9.062 0 0 1-1.982 0.203 8.7465 8.7465 0 0 1-2.342-0.3 6.2526 6.2526 0 0 1-1.885-0.863 5.5161 5.5161 0 0 1-1.322-1.259 5.3888 5.3888 0 0 1-0.777-1.516 5.6862 5.6862 0 0 1-0.27-1.793 5.2568 5.2568 0 0 1 1.807-4.084 7.1248 7.1248 0 0 1 4.935-1.622 11.023 11.023 0 0 1 1.371 0.081 13.849 13.849 0 0 1 1.532 0.309c0.603 0.152 0.974 0.24 1.109 0.268a4.8698 4.8698 0 0 0-0.266 0.831 11.102 11.102 0 0 0-0.175 1.528h-0.489l-9e-3 -0.908a1.3688 1.3688 0 0 0-0.885-1.133 5.8343 5.8343 0 0 0-2.348-0.368 6.638 6.638 0 0 0-1.961 0.279 3.7671 3.7671 0 0 0-1.424 0.839 4.4432 4.4432 0 0 0-1.006 1.459 5.5932 5.5932 0 0 0-0.396 2.222 4.9389 4.9389 0 0 0 1.5 3.765 5.5227 5.5227 0 0 0 3.969 1.423 7.0579 7.0579 0 0 0 2.064-0.289 4.9571 4.9571 0 0 0 1.287-0.623z"/>
  <path d="m4.6489 0.9904v-0.517q0.8505 0.06 1.627 0.06c0.526 0 1.028-0.02 1.509-0.06q0.717 1.5525 1.309 2.712l3.082 6.034 2.784-5.526q1.1355-2.2559 1.517-3.22 0.8565 0.06 1.45 0.06c0.361 0 0.945-0.02 1.757-0.06v0.517a6.0654 6.0654 0 0 0-1.174 0.08 0.52187 0.52187 0 0 0-0.287 0.186 1.6675 1.6675 0 0 0-0.122 0.743c-6e-3 0.103-0.018 0.832-0.04 2.187v3.567q0 1.0545 0.04 2.049a2.3578 2.3578 0 0 0 0.116 0.866 0.55718 0.55718 0 0 0 0.299 0.206 5.592 5.592 0 0 0 1.168 0.085v0.49694c-1.091-0.043-1.86-0.06-2.308-0.06-0.362 0-1.161 0.017-2.401 0.06v-0.49694a5.7709 5.7709 0 0 0 1.178-0.085 0.49865 0.49865 0 0 0 0.283-0.181 1.6931 1.6931 0 0 0 0.121-0.748c7e-3 -0.109 0.02-0.838 0.04-2.196v-5.668l-2.803 5.584c-0.438 0.869-0.781 1.573-1.032 2.102q-0.2685 0.576-0.812 1.845h-0.316a3.5964 3.5964 0 0 0-0.195-0.472l-0.554-1.131-3.882-7.667v5.407c0 0.702 0.019 1.387 0.059 2.051a2.2958 2.2958 0 0 0 0.118 0.86694 0.54833 0.54833 0 0 0 0.3 0.207 5.6325 5.6325 0 0 0 1.173 0.085v0.49694l-1.961-0.06-2.043 0.06v-0.49694a5.6564 5.6564 0 0 0 1.168-0.085 0.55 0.55 0 0 0 0.292-0.181 1.9077 1.9077 0 0 0 0.122-0.746c6e-3 -0.108 0.02-0.838 0.039-2.194v-3.5669q0-1.0441-0.039-2.048a2.3809 2.3809 0 0 0-0.117-0.866 0.55383 0.55383 0 0 0-0.299-0.202 6.0061 6.0061 0 0 0-1.166-0.08"/>
  <path d="m21.927 11.406c0.459 0 1.143 0.014 2.061 0.051v-0.492a6.1625 6.1625 0 0 1-1.057-0.073 0.50427 0.50427 0 0 1-0.276-0.139 0.25567 0.25567 0 0 1-0.066-0.177 2.2878 2.2878 0 0 1 0.237-0.784l0.877-1.992h4.709l1.007 2.375a1.2061 1.2061 0 0 1 0.111 0.441 0.2411 0.2411 0 0 1-0.07 0.179 0.51745 0.51745 0 0 1-0.262 0.115 9.9836 9.9836 0 0 1-1.104 0.055v0.492l2.616-0.051c0.336 0 0.928 0.014 1.774 0.051v-0.492a2.5464 2.5464 0 0 1-0.829-0.094 0.81226 0.81226 0 0 1-0.337-0.353q-0.279-0.489-1.124-2.375l-3.481-7.769h-0.513c-0.729 1.661-1.202 2.729-1.427 3.2061l-2.035 4.366q-0.915 1.896-1.06 2.181a2.3863 2.3863 0 0 1-0.387 0.62194 0.74494 0.74494 0 0 1-0.292 0.165 4.779 4.779 0 0 1-0.804 0.051v0.492c0.628-0.037 1.205-0.051 1.732-0.051m4.127-8.912 2.033 4.654h-4.105z"/>
  <path d="m39.241 2.1242a3.3496 3.3496 0 0 0 0.483-0.87195 0.20712 0.20712 0 0 0-0.152-0.204 6.4368 6.4368 0 0 0-1.197-0.081v-0.494c1.003 0.033 1.593 0.048 2.151 0.048 0.538 0 0.833-0.015 1.898-0.048v0.494a4.6914 4.6914 0 0 0-1.043 0.081 1.1819 1.1819 0 0 0-0.414 0.18805 4.2539 4.2539 0 0 0-0.637 0.75l-2.379 3.408a10.741 10.741 0 0 0-0.774 1.319 1.294 1.294 0 0 0-0.089 0.464v0.588c0 0.69995 0.013 1.383 0.047 2.043a2.3285 2.3285 0 0 0 0.114 0.867 0.56774 0.56774 0 0 0 0.296 0.205 5.6431 5.6431 0 0 0 1.148 0.084v0.493c-0.881-0.038-1.643-0.052-2.284-0.052-0.616 0-1.431 0.014-2.441 0.052v-0.493a5.7651 5.7651 0 0 0 1.152-0.084 0.50812 0.50812 0 0 0 0.28-0.182 1.748 1.748 0 0 0 0.128-0.743q9e-3 -0.16206 0.047-2.19v-0.898q-0.17252-0.34653-0.331-0.622-0.114-0.19355-0.825-1.327l-2.068-2.932a3.7598 3.7598 0 0 0-0.568-0.75 1.0832 1.0832 0 0 0-0.398-0.18805 4.4088 4.4088 0 0 0-1.023-0.081v-0.494c1.065 0.033 1.385 0.048 1.921 0.048 0.561 0 1.992-0.015 2.996-0.048v0.494a7.8462 7.8462 0 0 0-1.284 0.081 0.23466 0.23466 0 0 0-0.172 0.204 3.0638 3.0638 0 0 0 0.41 0.872l2.423 3.914z"/>
  <path d="m44.111 3.0144a3.4746 3.4746 0 0 1 1.459-1.589 4.5107 4.5107 0 0 1 2.258-0.549 5.1735 5.1735 0 0 1 1.66 0.26 4.0879 4.0879 0 0 1 1.25 0.647 4.071 4.071 0 0 1 0.828 0.899 4.5824 4.5824 0 0 1 0.559 1.145 7.2822 7.2822 0 0 1 0.34 2.268 6.404 6.404 0 0 1-0.475 2.549 3.6805 3.6805 0 0 1-1.434 1.708 4.1757 4.1757 0 0 1-2.267 0.60394 4.7937 4.7937 0 0 1-1.711-0.29394 4.0472 4.0472 0 0 1-1.403-0.93006 4.7764 4.7764 0 0 1-1.011-1.5569 6.8494 6.8494 0 0 1-0.391-1.312 7.534 7.534 0 0 1-0.154-1.493 5.4467 5.4467 0 0 1 0.492-2.356m-1.793 5.192a5.0804 5.0804 0 0 0 1.16 1.889 4.92 4.92 0 0 0 1.863 1.174 7.2937 7.2937 0 0 0 2.375 0.391 6.4659 6.4659 0 0 0 4.633-1.735 5.7124 5.7124 0 0 0 1.838-4.333 6.083 6.083 0 0 0-0.183-1.528 4.5634 4.5634 0 0 0-0.491-1.236 4.8997 4.8997 0 0 0-1.105-1.299 5.285 5.285 0 0 0-1.795-0.949 7.743 7.743 0 0 0-2.434-0.359 7.3259 7.3259 0 0 0-2.576 0.419 5.9969 5.9969 0 0 0-2.021 1.246 4.8704 4.8704 0 0 0-1.276 1.863 6.5432 6.5432 0 0 0 0.012 4.457"/>
 </g>
 <path d="m41.357 31.538h-8.717v9.819c0 4.504 1.567 7.643 4.301 9.826l-2e-3 -1.375a10.467 10.467 0 0 1-2.295-7.242v-2.571h3.301v11.212c0 4.088-1.147 9.295-8.447 12.557-6.937-3.1-8.319-7.956-8.439-11.94 3.272-2.197 5.176-5.502 5.176-10.467v-1.362h5.349v-2.023h-5.349v-1e-3h-2.004v1e-3h-5.194v11.784c0 0.41205 0.011 0.812 0.033 1.205v1e-3a11.078 11.078 0 0 0 1.98-1.63v-9.337h3.181v2.571c0 3.407-0.629 7.629-6.713 10.348-6.084-2.719-6.714-6.941-6.714-10.348v-9.022h13.427v3.453h2.004v-5.459h-17.434v9.819c0 6.553 3.316 10.213 8.717 12.256q0.915-0.34506 1.749-0.757c0.933 5.954 4.656 9.497 10.231 11.607 5.558-2.102 9.275-5.631 10.222-11.552q0.783 0.37948 1.637 0.702c5.4-2.043 8.717-5.703 8.717-12.256v-9.819zm6.713 11.028c0 3.406-0.629 7.629-6.713 10.348a16.288 16.288 0 0 1-1.531-0.78 20.524 20.524 0 0 0 0.133-2.3781v-11.784h-5.315v-4.428h13.426z" fill="#0067b1"/>
</svg>
